<?xml version="1.0" encoding="utf-8"?>
<!-- Generator: Adobe Illustrator 25.0.0, SVG Export Plug-In . SVG Version: 6.00 Build 0)  -->
<svg version="1.1" id="Layer_1" xmlns="http://www.w3.org/2000/svg" xmlns:xlink="http://www.w3.org/1999/xlink" x="0px" y="0px"
	 viewBox="0 0 28.79 36.43" style="enable-background:new 0 0 28.79 36.43;" xml:space="preserve">
<style type="text/css">
	.st0{fill:#F7CE40;}
</style>
<g>
	<g>
		<g>
			<path class="st0" d="M24.77,23.68c-0.42,2.4-1.12,4.44-2.11,6.12s-2.16,2.99-3.53,3.93c-1.37,0.96-2.93,1.64-4.68,2.07
				s-3.65,0.63-5.7,0.63c-1.73,0-3.34-0.11-4.85-0.33c-1.51-0.22-2.81-0.48-3.9-0.77l1.14-6.49h0.95c0.37,0.15,0.82,0.32,1.33,0.51
				s1.04,0.35,1.56,0.51c0.63,0.17,1.25,0.31,1.87,0.42c0.61,0.11,1.25,0.16,1.91,0.16c1.37,0,2.54-0.14,3.5-0.43
				c0.97-0.28,1.73-0.69,2.28-1.21c0.56-0.54,0.99-1.17,1.3-1.9c0.31-0.73,0.57-1.65,0.76-2.76l0.08-0.49
				c-1.05,0.8-2.21,1.44-3.49,1.93c-1.28,0.49-2.55,0.73-3.81,0.73c-3.36,0-5.76-1.09-7.2-3.28c-1.44-2.19-1.77-5.51-0.99-9.98
				C1.55,11,2.15,9.17,3,7.55c0.85-1.62,1.87-3,3.07-4.13c1.15-1.09,2.45-1.94,3.91-2.53C11.43,0.3,12.89,0,14.36,0
				c1.32,0,2.48,0.17,3.47,0.51c0.99,0.34,1.86,0.79,2.63,1.36l0.5-1.16h7.83L24.77,23.68z M17.59,18.48l2.06-11.76
				c-0.37-0.19-0.83-0.34-1.4-0.46c-0.56-0.12-1.14-0.18-1.72-0.18c-1.94,0-3.51,0.63-4.71,1.88s-1.99,3.01-2.39,5.25
				c-0.2,1.12-0.29,2.08-0.28,2.85c0.01,0.78,0.16,1.47,0.46,2.07c0.28,0.59,0.71,1.03,1.28,1.33c0.57,0.3,1.34,0.45,2.31,0.45
				c0.72,0,1.46-0.12,2.2-0.37C16.15,19.3,16.88,18.94,17.59,18.48z"/>
		</g>
	</g>
</g>
</svg>
