<?xml version="1.0" encoding="utf-8"?>
<!-- Generator: Adobe Illustrator 25.0.0, SVG Export Plug-In . SVG Version: 6.00 Build 0)  -->
<svg version="1.1" id="Layer_1" xmlns="http://www.w3.org/2000/svg" xmlns:xlink="http://www.w3.org/1999/xlink" x="0px" y="0px"
	 viewBox="0 0 140.72 45.72" style="enable-background:new 0 0 140.72 45.72;" xml:space="preserve">
<style type="text/css">
	.st0{fill:#282E69;}
</style>
<g>
	<g>
		<g>
			<path class="st0" d="M24.77,32.97c-0.42,2.4-1.12,4.44-2.11,6.12c-0.99,1.68-2.16,2.99-3.53,3.93c-1.37,0.96-2.93,1.64-4.68,2.07
				s-3.65,0.63-5.7,0.63c-1.73,0-3.34-0.11-4.85-0.33C2.39,45.16,1.09,44.9,0,44.61l1.14-6.49h0.95c0.37,0.15,0.82,0.32,1.33,0.51
				c0.51,0.18,1.04,0.35,1.56,0.51c0.63,0.17,1.25,0.31,1.87,0.42c0.61,0.11,1.25,0.16,1.91,0.16c1.37,0,2.54-0.14,3.5-0.43
				c0.97-0.28,1.73-0.69,2.28-1.21c0.56-0.54,0.99-1.17,1.3-1.9c0.31-0.73,0.57-1.65,0.76-2.76l0.08-0.49
				c-1.05,0.8-2.21,1.44-3.49,1.93c-1.28,0.49-2.55,0.73-3.81,0.73c-3.36,0-5.76-1.09-7.2-3.28c-1.44-2.19-1.77-5.51-0.99-9.98
				c0.36-2.03,0.96-3.86,1.8-5.47c0.85-1.62,1.87-3,3.07-4.13c1.15-1.09,2.45-1.94,3.91-2.53c1.46-0.59,2.92-0.89,4.38-0.89
				c1.32,0,2.48,0.17,3.47,0.51c0.99,0.34,1.86,0.79,2.63,1.36l0.5-1.16h7.83L24.77,32.97z M17.59,27.77l2.06-11.76
				c-0.37-0.19-0.83-0.34-1.4-0.46c-0.56-0.12-1.14-0.18-1.72-0.18c-1.94,0-3.51,0.63-4.71,1.88s-1.99,3.01-2.39,5.25
				c-0.2,1.12-0.29,2.08-0.28,2.85c0.01,0.78,0.16,1.47,0.46,2.07c0.28,0.59,0.71,1.03,1.28,1.33c0.57,0.3,1.34,0.45,2.31,0.45
				c0.72,0,1.46-0.12,2.2-0.37C16.15,28.58,16.88,28.23,17.59,27.77z"/>
			<path class="st0" d="M57.61,22.99c-0.75,4.27-2.5,7.63-5.26,10.08c-2.76,2.46-6.28,3.68-10.54,3.68c-4.24,0-7.31-1.23-9.23-3.68
				c-1.92-2.46-2.51-5.82-1.76-10.08c0.75-4.31,2.52-7.69,5.3-10.13c2.77-2.44,6.28-3.66,10.52-3.66c4.25,0,7.33,1.23,9.24,3.69
				C57.78,15.34,58.36,18.7,57.61,22.99z M49.31,23.03c0.27-1.54,0.37-2.82,0.29-3.85c-0.08-1.02-0.28-1.84-0.62-2.46
				c-0.36-0.65-0.82-1.1-1.38-1.35c-0.56-0.25-1.22-0.38-1.99-0.38c-0.72,0-1.4,0.11-2.02,0.34c-0.63,0.22-1.24,0.65-1.84,1.28
				c-0.57,0.6-1.08,1.43-1.54,2.47c-0.46,1.05-0.83,2.36-1.11,3.95c-0.28,1.59-0.37,2.87-0.28,3.85c0.09,0.98,0.29,1.76,0.61,2.34
				c0.33,0.6,0.79,1.04,1.39,1.32c0.6,0.28,1.29,0.42,2.08,0.42c0.65,0,1.33-0.14,2.05-0.42c0.72-0.28,1.33-0.69,1.82-1.25
				c0.59-0.66,1.09-1.46,1.5-2.39C48.67,25.97,49.02,24.68,49.31,23.03z"/>
			<path class="st0" d="M86.81,22.99c-0.75,4.27-2.5,7.63-5.26,10.08c-2.76,2.46-6.28,3.68-10.54,3.68c-4.24,0-7.31-1.23-9.23-3.68
				c-1.92-2.46-2.51-5.82-1.76-10.08c0.75-4.31,2.52-7.69,5.3-10.13c2.78-2.44,6.28-3.66,10.52-3.66c4.25,0,7.33,1.23,9.24,3.69
				C86.98,15.34,87.56,18.7,86.81,22.99z M78.51,23.03c0.27-1.54,0.37-2.82,0.29-3.85c-0.08-1.02-0.28-1.84-0.62-2.46
				c-0.37-0.65-0.82-1.1-1.38-1.35c-0.56-0.25-1.22-0.38-1.99-0.38c-0.72,0-1.4,0.11-2.02,0.34s-1.24,0.65-1.84,1.28
				c-0.57,0.6-1.08,1.43-1.54,2.47c-0.46,1.05-0.83,2.36-1.11,3.95c-0.28,1.59-0.37,2.87-0.28,3.85c0.09,0.98,0.29,1.76,0.61,2.34
				c0.33,0.6,0.79,1.04,1.39,1.32c0.6,0.28,1.29,0.42,2.08,0.42c0.65,0,1.33-0.14,2.05-0.42c0.72-0.28,1.33-0.69,1.82-1.25
				c0.59-0.66,1.1-1.46,1.5-2.39S78.22,24.68,78.51,23.03z"/>
			<path class="st0" d="M96.61,36.66c-1.91,0-3.68-0.21-5.31-0.62c-1.63-0.42-2.95-0.9-3.96-1.46l1.2-6.84h0.67
				c0.33,0.29,0.72,0.62,1.15,0.97c0.43,0.35,1.05,0.72,1.86,1.11c0.69,0.35,1.49,0.66,2.39,0.91s1.91,0.38,3.02,0.38
				c1.14,0,2.17-0.18,3.11-0.53c0.93-0.35,1.47-0.92,1.6-1.69c0.11-0.6-0.02-1.06-0.36-1.36c-0.35-0.31-1.07-0.6-2.18-0.88
				c-0.59-0.15-1.34-0.32-2.25-0.5c-0.91-0.18-1.7-0.38-2.39-0.61c-1.92-0.63-3.29-1.57-4.09-2.81c-0.81-1.24-1.03-2.87-0.68-4.89
				c0.2-1.15,0.66-2.24,1.37-3.27c0.71-1.02,1.65-1.94,2.82-2.74c1.17-0.79,2.55-1.41,4.15-1.87c1.6-0.46,3.35-0.69,5.26-0.69
				c1.82,0,3.46,0.18,4.92,0.54c1.46,0.36,2.67,0.8,3.63,1.31l-1.15,6.56h-0.65c-0.24-0.22-0.63-0.5-1.17-0.87
				c-0.54-0.36-1.07-0.67-1.59-0.94c-0.62-0.31-1.34-0.56-2.14-0.76c-0.8-0.2-1.65-0.3-2.52-0.3c-1.17,0-2.2,0.2-3.07,0.6
				c-0.88,0.4-1.38,0.93-1.49,1.59c-0.1,0.59,0.02,1.05,0.36,1.39c0.34,0.34,1.15,0.67,2.44,0.99c0.66,0.17,1.43,0.33,2.3,0.5
				c0.87,0.16,1.7,0.38,2.48,0.66c1.76,0.6,3.02,1.48,3.78,2.64c0.76,1.16,0.97,2.71,0.63,4.63c-0.21,1.22-0.7,2.38-1.46,3.48
				c-0.76,1.1-1.73,2.03-2.91,2.78c-1.25,0.82-2.67,1.45-4.25,1.89C100.54,36.44,98.71,36.66,96.61,36.66z"/>
			<path class="st0" d="M137.49,35.95h-8.13l2.25-12.87c0.18-1.05,0.32-2.09,0.42-3.13c0.1-1.04,0.07-1.81-0.07-2.3
				c-0.18-0.59-0.5-1-0.98-1.26c-0.48-0.25-1.16-0.38-2.04-0.38c-0.66,0-1.35,0.12-2.08,0.37c-0.72,0.25-1.51,0.64-2.38,1.18
				l-3.22,18.39h-8.09L119.48,0h8.09l-2.25,12.87c1.52-1.12,2.96-2,4.33-2.63c1.37-0.63,2.81-0.95,4.34-0.95
				c2.65,0,4.53,0.84,5.64,2.51c1.11,1.67,1.39,4.09,0.83,7.27L137.49,35.95z"/>
		</g>
	</g>
</g>
</svg>
